<?xml version="1.0" encoding="utf-8"?>
<svg viewBox="0 0 497.215 84.221" xmlns="http://www.w3.org/2000/svg">
  <g transform="matrix(0.356535, 0, 0, 0.356535, -9.7015, -133.87871)" style="">
    <path class="cls-2" d="M457.63,484.01c0,9.15-2.36,17.38-7.07,24.67-4.71,7.3-11.61,13.01-20.7,17.14-9.08,4.13-19.86,6.19-32.31,6.19-14.93,0-27.25-2.82-36.96-8.47-6.88-4.06-12.47-9.48-16.78-16.26-4.3-6.78-6.45-13.37-6.45-19.77,0-3.72,1.29-6.9,3.87-9.55,2.58-2.65,5.87-3.97,9.86-3.97,3.24,0,5.97,1.03,8.21,3.1s4.15,5.13,5.73,9.19c1.93,4.82,4.01,8.84,6.25,12.08,2.24,3.24,5.38,5.9,9.45,8,4.06,2.1,9.39,3.15,16,3.15,9.08,0,16.47-2.12,22.14-6.35,5.68-4.23,8.52-9.51,8.52-15.85,0-5.02-1.53-9.1-4.59-12.23-3.06-3.13-7.02-5.52-11.87-7.17-4.85-1.65-11.34-3.41-19.46-5.26-10.87-2.55-19.98-5.52-27.31-8.93s-13.15-8.05-17.45-13.94c-4.3-5.88-6.45-13.2-6.45-21.94s2.27-15.73,6.81-22.2c4.54-6.47,11.11-11.44,19.72-14.92,8.6-3.48,18.72-5.21,30.35-5.21,9.29,0,17.33,1.15,24.11,3.46,6.78,2.31,12.4,5.37,16.88,9.19,4.47,3.82,7.74,7.83,9.81,12.03,2.06,4.2,3.1,8.29,3.1,12.28,0,3.65-1.29,6.93-3.87,9.86-2.58,2.93-5.8,4.39-9.65,4.39-3.51,0-6.18-.88-8-2.63-1.82-1.75-3.8-4.63-5.94-8.62-2.75-5.71-6.06-10.17-9.91-13.37-3.85-3.2-10.05-4.8-18.58-4.8-7.91,0-14.3,1.74-19.15,5.21-4.85,3.48-7.28,7.66-7.28,12.54,0,3.03.83,5.64,2.48,7.85,1.65,2.2,3.92,4.1,6.81,5.68,2.89,1.58,5.82,2.82,8.77,3.72,2.96.9,7.85,2.2,14.66,3.92,8.53,2,16.26,4.2,23.18,6.61,6.92,2.41,12.8,5.33,17.65,8.77,4.85,3.44,8.64,7.79,11.36,13.06,2.72,5.26,4.08,11.72,4.08,19.36Z" style="fill: rgb(29, 29, 27); stroke-width: 0px;"/>
    <path class="cls-2" d="M550.23,375.51c15.69,0,29.16,3.18,40.42,9.55,11.25,6.37,19.77,15.42,25.55,27.15,5.78,11.74,8.67,25.52,8.67,41.35,0,11.7-1.58,22.33-4.75,31.9-3.17,9.57-7.91,17.86-14.25,24.88-6.33,7.02-14.11,12.39-23.33,16.1-9.22,3.72-19.79,5.57-31.69,5.57s-22.44-1.91-31.8-5.73c-9.36-3.82-17.17-9.2-23.43-16.16-6.26-6.95-10.99-15.31-14.19-25.09-3.2-9.77-4.8-20.34-4.8-31.69s1.67-22.3,5.01-32c3.34-9.7,8.17-17.96,14.5-24.78,6.33-6.81,14.04-12.03,23.12-15.64s19.41-5.42,30.97-5.42ZM593.8,453.35c0-11.08-1.79-20.68-5.37-28.8-3.58-8.12-8.69-14.26-15.33-18.43-6.64-4.16-14.26-6.25-22.87-6.25-6.13,0-11.79,1.15-16.98,3.46-5.2,2.31-9.67,5.66-13.42,10.07-3.75,4.41-6.71,10.03-8.88,16.88-2.17,6.85-3.25,14.54-3.25,23.07s1.08,16.38,3.25,23.33c2.17,6.95,5.23,12.72,9.19,17.29,3.96,4.58,8.5,8,13.63,10.27,5.13,2.27,10.75,3.41,16.88,3.41,7.85,0,15.06-1.96,21.63-5.88s11.8-9.98,15.69-18.17c3.89-8.19,5.83-18.27,5.83-30.25Z" style="fill: rgb(29, 29, 27); stroke-width: 0px;"/>
    <path class="cls-2" d="M681.14,395.38v110.15h62.15c4.96,0,8.76,1.21,11.41,3.61,2.65,2.41,3.97,5.44,3.97,9.08s-1.31,6.73-3.92,9.03c-2.62,2.31-6.44,3.46-11.46,3.46h-74.02c-6.68,0-11.48-1.48-14.4-4.44-2.93-2.96-4.39-7.74-4.39-14.35v-116.55c0-6.19,1.39-10.84,4.18-13.94,2.79-3.1,6.45-4.65,10.99-4.65s8.35,1.53,11.2,4.59c2.86,3.06,4.28,7.73,4.28,13.99Z" style="fill: rgb(29, 29, 27); stroke-width: 0px;"/>
    <path class="cls-2" d="M768.47,466.87v-72.78c0-6.19,1.39-10.84,4.18-13.94,2.79-3.1,6.45-4.65,10.99-4.65s8.52,1.55,11.3,4.65c2.79,3.1,4.18,7.74,4.18,13.94v74.43c0,8.47.95,15.54,2.84,21.21,1.89,5.68,5.25,10.08,10.07,13.21,4.82,3.13,11.56,4.7,20.23,4.7,11.98,0,20.44-3.18,25.4-9.55,4.96-6.37,7.43-16.02,7.43-28.96v-75.05c0-6.26,1.38-10.92,4.13-13.99,2.75-3.06,6.44-4.59,11.05-4.59s8.35,1.53,11.2,4.59c2.86,3.06,4.28,7.73,4.28,13.99v72.78c0,11.84-1.15,21.71-3.46,29.63-2.31,7.92-6.66,14.87-13.06,20.85-5.51,5.09-11.91,8.81-19.2,11.15-7.29,2.34-15.83,3.51-25.6,3.51-11.63,0-21.64-1.26-30.04-3.77-8.4-2.51-15.24-6.4-20.54-11.67-5.3-5.26-9.19-12.01-11.67-20.23-2.48-8.22-3.72-18.05-3.72-29.47Z" style="fill: rgb(29, 29, 27); stroke-width: 0px;"/>
    <path class="cls-2" d="M1027.18,402.09h-33.45v109.95c0,6.33-1.41,11.03-4.23,14.09-2.82,3.06-6.47,4.59-10.94,4.59s-8.24-1.55-11.1-4.65c-2.86-3.1-4.28-7.78-4.28-14.04v-109.95h-33.45c-5.23,0-9.12-1.15-11.67-3.46-2.55-2.3-3.82-5.35-3.82-9.14s1.33-7.02,3.97-9.29c2.65-2.27,6.49-3.41,11.51-3.41h97.45c5.3,0,9.24,1.17,11.82,3.51,2.58,2.34,3.87,5.4,3.87,9.19s-1.31,6.83-3.92,9.14c-2.62,2.31-6.54,3.46-11.77,3.46Z" style="fill: rgb(29, 29, 27); stroke-width: 0px;"/>
    <path class="cls-2" d="M1062.28,513.33v-119.24c0-6.19,1.41-10.84,4.23-13.94,2.82-3.1,6.47-4.65,10.94-4.65s8.35,1.53,11.2,4.59c2.86,3.06,4.28,7.73,4.28,13.99v119.24c0,6.26-1.43,10.94-4.28,14.04s-6.59,4.65-11.2,4.65-8.04-1.57-10.89-4.7-4.28-7.79-4.28-13.99Z" style="fill: rgb(29, 29, 27); stroke-width: 0px;"/>
    <path class="cls-2" d="M1193.8,375.51c15.69,0,29.16,3.18,40.42,9.55,11.25,6.37,19.77,15.42,25.55,27.15,5.78,11.74,8.67,25.52,8.67,41.35,0,11.7-1.58,22.33-4.75,31.9-3.17,9.57-7.91,17.86-14.25,24.88-6.33,7.02-14.11,12.39-23.33,16.1-9.22,3.72-19.79,5.57-31.69,5.57s-22.44-1.91-31.8-5.73c-9.36-3.82-17.17-9.2-23.43-16.16-6.26-6.95-10.99-15.31-14.19-25.09-3.2-9.77-4.8-20.34-4.8-31.69s1.67-22.3,5.01-32c3.34-9.7,8.17-17.96,14.5-24.78,6.33-6.81,14.04-12.03,23.12-15.64,9.08-3.61,19.41-5.42,30.97-5.42ZM1237.37,453.35c0-11.08-1.79-20.68-5.37-28.8-3.58-8.12-8.69-14.26-15.33-18.43-6.64-4.16-14.26-6.25-22.87-6.25-6.13,0-11.79,1.15-16.98,3.46-5.2,2.31-9.67,5.66-13.42,10.07-3.75,4.41-6.71,10.03-8.88,16.88-2.17,6.85-3.25,14.54-3.25,23.07s1.08,16.38,3.25,23.33c2.17,6.95,5.23,12.72,9.19,17.29,3.96,4.58,8.5,8,13.63,10.27s10.75,3.41,16.88,3.41c7.85,0,15.06-1.96,21.63-5.88,6.57-3.92,11.8-9.98,15.69-18.17,3.89-8.19,5.83-18.27,5.83-30.25Z" style="fill: rgb(29, 29, 27); stroke-width: 0px;"/>
    <path class="cls-2" d="M1334.61,393.88l58.95,89.2v-90.02c0-5.85,1.26-10.24,3.77-13.16,2.51-2.92,5.9-4.39,10.17-4.39s7.88,1.46,10.43,4.39c2.55,2.93,3.82,7.31,3.82,13.16v119.03c0,13.28-5.51,19.92-16.52,19.92-2.75,0-5.23-.4-7.43-1.19-2.2-.79-4.27-2.05-6.19-3.77-1.93-1.72-3.72-3.73-5.37-6.04-1.65-2.3-3.3-4.66-4.96-7.07l-57.5-88.16v88.68c0,5.78-1.34,10.15-4.03,13.11-2.68,2.96-6.13,4.44-10.32,4.44s-7.81-1.5-10.43-4.49c-2.62-2.99-3.92-7.35-3.92-13.06v-116.76c0-4.96.55-8.84,1.65-11.67,1.31-3.1,3.48-5.63,6.5-7.59,3.03-1.96,6.3-2.94,9.81-2.94,2.75,0,5.11.45,7.07,1.34,1.96.9,3.68,2.1,5.16,3.61,1.48,1.52,2.99,3.48,4.54,5.88,1.55,2.41,3.15,4.92,4.8,7.54Z" style="fill: rgb(29, 29, 27); stroke-width: 0px;"/>
  </g>
  <g transform="matrix(0.356535, 0, 0, 0.356535, -9.7015, -133.87575)" style="">
    <path class="cls-2" d="M362.3,573.39v11.9h13.27c.49,0,.88.39.88.88v3.21c0,.49-.39.88-.88.88h-13.27v15.44h18.53c.49,0,.88.39.88.88v3.5c0,.49-.39.88-.88.88h-24.38v-42.84h24.7c.49,0,.88.39.88.88v3.5c0,.49-.39.88-.88.88h-18.86Z" style="fill: rgb(29, 29, 27); stroke-width: 0px;"/>
    <path class="cls-2" d="M427.18,611.55l-20.53-29.05c-.5-.7-1.6-.35-1.6.51v27.96h-5.56v-42.84h0c1.47,0,2.85.7,3.72,1.89l18.58,25.54c.5.69,1.59.33,1.59-.52v-26.91h5.56v43.42h-1.75Z" style="fill: rgb(29, 29, 27); stroke-width: 0px;"/>
    <path class="cls-2" d="M478.35,571.11l-2.43,4.82c-2.94-2.18-5.83-3.27-8.66-3.27-4.48,0-8.02,1.58-10.61,4.74-2.59,3.16-3.89,7.34-3.89,12.54s1.27,8.94,3.82,11.96c2.54,3.02,6.01,4.53,10.39,4.53,3.12,0,5.64-.94,7.57-2.81v-10.03h-5.06c-.49,0-.88-.39-.88-.88v-3.21c0-.49.39-.88.88-.88h10.02c.49,0,.88.39.88.88v17.77c-1.56,1.33-3.73,2.39-6.52,3.2-2.79.81-5.5,1.21-8.13,1.21-5.91,0-10.57-2-13.99-6.01-3.42-4.01-5.13-9.33-5.13-15.98s1.88-12,5.63-16.13c3.75-4.12,8.82-6.19,15.19-6.19,4.46,0,8.1,1.24,10.91,3.71Z" style="fill: rgb(29, 29, 27); stroke-width: 0px;"/>
    <path class="cls-2" d="M500.12,610.09v-41.96h5.85v37.57h18.48c.49,0,.88.39.88.88v3.5c0,.49-.39.88-.88.88h-23.44c-.49,0-.88-.39-.88-.88Z" style="fill: rgb(29, 29, 27); stroke-width: 0px;"/>
    <path class="cls-2" d="M542.43,610.09v-41.08c0-.49.39-.88.88-.88h4.09c.49,0,.88.39.88.88v41.08c0,.49-.39.88-.88.88h-4.09c-.49,0-.88-.39-.88-.88Z" style="fill: rgb(29, 29, 27); stroke-width: 0px;"/>
    <path class="cls-2" d="M567.37,608.31l1.45-3.65c.2-.51.81-.75,1.28-.47.92.55,1.99,1.03,3.21,1.43,1.63.53,3.08.8,4.37.8,2.28,0,4.11-.62,5.5-1.87,1.38-1.25,2.08-2.84,2.08-4.77,0-1.44-.39-2.78-1.15-4.02-.77-1.24-2.71-2.59-5.81-4.05l-3.45-1.61c-2.92-1.36-4.97-2.98-6.12-4.85-1.16-1.87-1.74-4.12-1.74-6.75,0-3.2,1.13-5.85,3.39-7.95,2.26-2.11,5.17-3.16,8.71-3.16,4.32,0,7.44.64,9.37,1.92.32.21.43.64.31,1l-1.16,3.44c-.18.52-.76.75-1.24.49-.71-.37-1.6-.74-2.68-1.09-1.6-.53-3.08-.79-4.44-.79-1.99,0-3.55.57-4.69,1.7-1.14,1.13-1.71,2.58-1.71,4.36,0,1.09.2,2.09.61,2.98s.98,1.65,1.71,2.25c.73.6,2.23,1.45,4.49,2.54l3.51,1.67c2.92,1.38,4.98,3.04,6.16,4.96,1.18,1.92,1.77,4.36,1.77,7.32,0,3.22-1.29,5.95-3.87,8.19-2.58,2.24-6.04,3.36-10.37,3.36-3.51,0-6.54-.76-9.11-2.29-.37-.22-.52-.69-.36-1.09Z" style="fill: rgb(29, 29, 27); stroke-width: 0px;"/>
    <path class="cls-2" d="M633.35,610.97v-19.82c0-.49-.39-.88-.88-.88h-16.95c-.49,0-.88.39-.88.88v19.82h-5.85v-42.84h5.85v16.28c0,.49.39.88.88.88h16.95c.49,0,.88-.39.88-.88v-16.28h5.85v42.84h-5.85Z" style="fill: rgb(29, 29, 27); stroke-width: 0px;"/>
    <path class="cls-2" d="M716.93,610.09v-41.96h5.85v37.57h18.48c.49,0,.88.39.88.88v3.5c0,.49-.39.88-.88.88h-23.44c-.49,0-.88-.39-.88-.88Z" style="fill: rgb(29, 29, 27); stroke-width: 0px;"/>
    <path class="cls-2" d="M782.54,610.97l-2.75-8.43c-.12-.36-.46-.61-.84-.61h-14.67c-.37,0-.71.24-.83.59l-2.95,8.45h-6.55l17.4-43.42h1.55l16.14,43.42h-6.49ZM771.84,578.77l-6.22,17.69c-.2.57.22,1.17.83,1.17h10.27c.6,0,1.02-.58.84-1.15l-5.71-17.71Z" style="fill: rgb(29, 29, 27); stroke-width: 0px;"/>
    <path class="cls-2" d="M832.18,611.55l-20.53-29.05c-.5-.7-1.6-.35-1.6.51v27.96h-5.56v-42.84h0c1.47,0,2.85.7,3.72,1.89l20.17,27.73v-29.62h5.56v43.42h-1.75Z" style="fill: rgb(29, 29, 27); stroke-width: 0px;"/>
    <path class="cls-2" d="M883.35,571.11l-2.43,4.82c-2.94-2.18-5.83-3.27-8.66-3.27-4.48,0-8.02,1.58-10.61,4.74-2.59,3.16-3.89,7.34-3.89,12.54s1.27,8.94,3.81,11.96c2.54,3.02,6.01,4.53,10.4,4.53,3.12,0,5.64-.94,7.57-2.81v-10.03h-5.06c-.49,0-.88-.39-.88-.88v-3.21c0-.49.39-.88.88-.88h10.02c.49,0,.88.39.88.88v17.77c-1.56,1.33-3.73,2.39-6.52,3.2-2.79.81-5.5,1.21-8.13,1.21-5.91,0-10.57-2-13.99-6.01-3.42-4.01-5.13-9.33-5.13-15.98s1.87-12,5.63-16.13c3.75-4.12,8.82-6.19,15.19-6.19,4.46,0,8.1,1.24,10.91,3.71Z" style="fill: rgb(29, 29, 27); stroke-width: 0px;"/>
    <path class="cls-2" d="M905.12,568.13h5.85v29.33c0,2.61.83,4.76,2.49,6.45,1.66,1.69,3.85,2.53,6.58,2.53,2.88,0,5.16-.82,6.81-2.46,1.66-1.64,2.49-3.86,2.49-6.67v-29.18h5.85v29.8c0,4.33-1.35,7.71-4.05,10.13-2.7,2.43-6.38,3.64-11.04,3.64s-8.49-1.19-11.08-3.57c-2.59-2.38-3.89-5.79-3.89-10.23v-29.77Z" style="fill: rgb(29, 29, 27); stroke-width: 0px;"/>
    <path class="cls-2" d="M979.24,610.97l-2.75-8.43c-.12-.36-.46-.61-.84-.61h-14.67c-.37,0-.71.24-.83.59l-2.95,8.45h-6.55l17.4-43.42h1.55l16.14,43.42h-6.49ZM968.54,578.77l-6.22,17.69c-.2.57.22,1.17.83,1.17h10.27c.6,0,1.02-.58.84-1.15l-5.71-17.71Z" style="fill: rgb(29, 29, 27); stroke-width: 0px;"/>
    <path class="cls-2" d="M1030.87,571.11l-2.43,4.82c-2.94-2.18-5.83-3.27-8.66-3.27-4.48,0-8.02,1.58-10.61,4.74-2.59,3.16-3.89,7.34-3.89,12.54s1.27,8.94,3.81,11.96c2.54,3.02,6.01,4.53,10.4,4.53,3.12,0,5.64-.94,7.57-2.81v-10.03h-5.06c-.49,0-.88-.39-.88-.88v-3.21c0-.49.39-.88.88-.88h10.02c.49,0,.88.39.88.88v17.77c-1.56,1.33-3.73,2.39-6.52,3.2-2.79.81-5.5,1.21-8.13,1.21-5.91,0-10.57-2-13.99-6.01-3.42-4.01-5.13-9.33-5.13-15.98s1.87-12,5.63-16.13c3.75-4.12,8.82-6.19,15.19-6.19,4.46,0,8.1,1.24,10.91,3.71Z" style="fill: rgb(29, 29, 27); stroke-width: 0px;"/>
    <path class="cls-2" d="M1058.5,573.39v11.9h13.27c.49,0,.88.39.88.88v3.21c0,.49-.39.88-.88.88h-13.27v15.44h18.53c.49,0,.88.39.88.88v3.5c0,.49-.39.88-.88.88h-24.38v-42.84h24.7c.49,0,.88.39.88.88v3.5c0,.49-.39.88-.88.88h-18.86Z" style="fill: rgb(29, 29, 27); stroke-width: 0px;"/>
    <path class="cls-2" d="M1152.03,608.31l1.45-3.65c.2-.51.81-.75,1.28-.46.92.55,1.99,1.03,3.21,1.43,1.63.53,3.09.8,4.37.8,2.28,0,4.11-.62,5.5-1.87,1.38-1.25,2.08-2.84,2.08-4.77,0-1.44-.39-2.78-1.16-4.02-.77-1.24-2.7-2.59-5.8-4.05l-3.45-1.61c-2.92-1.36-4.97-2.98-6.13-4.85s-1.74-4.12-1.74-6.75c0-3.2,1.13-5.85,3.39-7.95,2.26-2.11,5.17-3.16,8.71-3.16,4.32,0,7.44.64,9.37,1.92.32.21.43.64.31,1l-1.16,3.44c-.18.52-.76.75-1.24.49-.71-.37-1.6-.74-2.68-1.09-1.6-.53-3.08-.79-4.44-.79-1.99,0-3.55.57-4.69,1.7-1.14,1.13-1.71,2.58-1.71,4.36,0,1.09.2,2.09.61,2.98s.98,1.65,1.71,2.25c.73.6,2.23,1.45,4.49,2.54l3.51,1.67c2.92,1.38,4.97,3.04,6.15,4.96,1.18,1.92,1.77,4.36,1.77,7.32,0,3.22-1.29,5.95-3.88,8.19-2.58,2.24-6.04,3.36-10.36,3.36-3.51,0-6.54-.76-9.11-2.29-.37-.22-.52-.69-.36-1.09Z" style="fill: rgb(29, 29, 27); stroke-width: 0px;"/>
    <path class="cls-2" d="M1220.5,570.44l-1.29,3.28c-.19.48-.75.71-1.2.47-1.87-1.02-4.54-1.53-8.01-1.53-3.76,0-6.78,1.62-9.05,4.85-2.27,3.24-3.41,7.41-3.41,12.51s1.16,8.83,3.5,11.86c2.33,3.03,5.34,4.55,9.02,4.55s6.43-1.13,8.54-3.4c.39-.42,1.05-.41,1.39.05l2.1,2.92c.26.36.22.88-.11,1.18-3.31,3.01-7.48,4.52-12.53,4.52-5.6,0-10-2.02-13.22-6.05-3.22-4.04-4.82-9.36-4.82-15.97s1.74-11.78,5.21-16.02c3.44-4.2,8.7-6.37,14.13-6.25,3.85.08,6.97.73,9.36,1.93.4.2.56.69.4,1.11Z" style="fill: rgb(29, 29, 27); stroke-width: 0px;"/>
    <path class="cls-2" d="M1264.79,610.97v-19.82c0-.49-.39-.88-.88-.88h-16.95c-.49,0-.88.39-.88.88v19.82h-5.85v-42.84h5.85v16.28c0,.49.39.88.88.88h16.95c.49,0,.88-.39.88-.88v-16.28h5.85v42.84h-5.85Z" style="fill: rgb(29, 29, 27); stroke-width: 0px;"/>
    <path class="cls-2" d="M1288.32,589.18c0-6.2,1.55-11.38,4.66-15.56,3.11-4.17,7.3-6.26,12.59-6.26,5.94,0,10.5,1.92,13.67,5.76,3.17,3.84,4.75,9.19,4.75,16.05s-1.59,12.55-4.77,16.53c-3.18,3.99-7.73,5.98-13.66,5.98-5.4,0-9.63-2.11-12.68-6.32-3.05-4.21-4.58-9.61-4.58-16.2ZM1294.46,589.18c0,4.91.97,9.02,2.91,12.31,1.94,3.29,4.67,4.94,8.2,4.94,4,0,7.04-1.51,9.14-4.53s3.14-7.26,3.14-12.72c0-11.03-4.09-16.55-12.28-16.55-3.63,0-6.38,1.48-8.27,4.44-1.89,2.96-2.84,7-2.84,12.11Z" style="fill: rgb(29, 29, 27); stroke-width: 0px;"/>
    <path class="cls-2" d="M1339.63,589.18c0-6.2,1.55-11.38,4.66-15.56,3.11-4.17,7.3-6.26,12.59-6.26,5.95,0,10.5,1.92,13.67,5.76,3.17,3.84,4.75,9.19,4.75,16.05s-1.59,12.55-4.77,16.53c-3.18,3.99-7.73,5.98-13.66,5.98-5.4,0-9.63-2.11-12.67-6.32-3.05-4.21-4.58-9.61-4.58-16.2ZM1345.77,589.18c0,4.91.97,9.02,2.91,12.31,1.94,3.29,4.67,4.94,8.2,4.94,4,0,7.04-1.51,9.14-4.53,2.09-3.02,3.14-7.26,3.14-12.72,0-11.03-4.09-16.55-12.28-16.55-3.63,0-6.38,1.48-8.27,4.44-1.89,2.96-2.84,7-2.84,12.11Z" style="fill: rgb(29, 29, 27); stroke-width: 0px;"/>
    <path class="cls-2" d="M1392.98,610.09v-41.96h5.85v37.57h18.48c.49,0,.88.39.88.88v3.5c0,.49-.39.88-.88.88h-23.44c-.49,0-.88-.39-.88-.88Z" style="fill: rgb(29, 29, 27); stroke-width: 0px;"/>
  </g>
  <path class="cls-1" d="M 99.498 24.908 C 99.526 30.252 97.955 35.115 94.845 39.472 C 94.018 40.631 93.087 41.689 92.089 42.695 L 83.55 51.234 L 78.502 56.279 C 76.081 55.049 73.468 54.425 70.679 54.41 C 72.708 52.385 74.737 50.353 76.769 48.325 C 80.234 44.859 83.697 41.397 87.162 37.928 C 90.66 34.427 92.538 30.216 92.613 25.25 C 92.674 21.449 91.612 17.965 89.43 14.843 C 84.278 7.487 74.604 5.098 66.614 9.199 C 65.178 9.94 63.876 10.86 62.697 11.944 C 62.693 11.948 62.693 11.951 62.689 11.951 C 62.475 12.143 62.265 12.343 62.062 12.55 C 58.647 15.965 55.23 19.381 51.815 22.793 C 51.765 22.843 51.711 22.896 51.661 22.946 C 48.296 26.316 44.93 29.678 41.565 33.043 C 41.494 33.115 41.422 33.186 41.347 33.261 C 32.569 42.036 23.795 50.813 15.028 59.595 C 11.837 62.79 10.71 66.65 11.812 71.025 C 13.794 78.901 22.857 82.27 29.581 78.006 C 29.813 77.86 30.035 77.703 30.255 77.539 C 30.762 77.161 31.239 76.748 31.688 76.299 C 39.429 68.558 47.17 60.81 54.91 53.07 C 62.832 45.158 70.744 37.243 78.659 29.325 C 80.266 27.717 80.755 25.813 79.964 23.681 C 78.752 20.44 74.69 19.363 71.97 21.52 C 71.734 21.709 71.514 21.913 71.3 22.126 C 60.051 33.375 48.798 44.62 37.553 55.872 C 37.169 56.258 36.773 56.618 36.263 56.839 C 34.723 57.498 33.001 56.999 32.042 55.616 C 31.143 54.307 31.304 52.507 32.426 51.306 C 32.494 51.234 32.558 51.17 32.626 51.106 C 43.978 39.75 55.327 28.402 66.675 17.05 C 70.679 13.052 76.865 12.357 81.639 15.37 C 87.219 18.886 88.884 26.422 85.311 31.974 C 84.823 32.723 84.271 33.415 83.64 34.049 C 79.14 38.544 74.647 43.037 70.152 47.537 C 66.58 51.109 63.011 54.678 59.435 58.247 L 50.828 66.783 L 34.676 82.806 C 34.587 82.876 34.491 82.948 34.392 83.019 C 34.292 83.094 34.188 83.172 34.077 83.251 C 33.899 83.376 33.711 83.508 33.507 83.643 C 32.733 84.164 31.924 84.616 31.089 84.997 C 30.915 85.08 30.733 85.158 30.551 85.24 C 30.366 85.319 30.18 85.397 29.988 85.472 C 29.795 85.547 29.595 85.622 29.396 85.693 C 29.172 85.771 28.943 85.846 28.712 85.921 C 28.523 85.978 28.33 86.035 28.134 86.089 C 27.935 86.146 27.731 86.196 27.521 86.246 C 27.463 86.26 27.403 86.275 27.342 86.285 C 27.154 86.332 26.961 86.371 26.768 86.409 C 24.922 86.773 23.021 86.852 21.142 86.649 C 20.629 86.588 20.123 86.513 19.613 86.409 C 17.239 85.953 14.924 85.015 12.817 83.593 C 3.868 77.543 2.211 65.923 7.665 57.77 C 8.35 56.75 9.116 55.797 9.983 54.928 C 15.046 49.862 20.112 44.799 25.174 39.736 C 28.943 35.963 32.715 32.195 36.484 28.43 C 36.495 28.416 36.506 28.409 36.516 28.398 C 37.04 27.866 37.564 27.342 38.088 26.822 C 38.134 26.776 38.184 26.726 38.234 26.676 C 42.175 22.736 46.114 18.796 50.054 14.857 C 50.357 14.554 50.667 14.243 50.984 13.93 C 53.13 11.776 55.28 9.63 57.43 7.48 C 57.798 7.112 58.179 6.756 58.568 6.417 C 62.996 2.528 68.63 0.456 74.331 0.342 C 78.919 0.246 83.55 1.415 87.636 3.918 C 95.002 8.429 99.449 16.258 99.494 24.908 L 99.498 24.908 Z" style="fill: rgb(255, 247, 66); stroke-width: 0px;"/>
  <g transform="matrix(0.356535, 0, 0, 0.356535, -9.7015, -133.87575)" style="">
    <path class="cls-2" d="M74.1,394.91c5.67-5.67,11.32-11.32,16.99-16.99h27.2s-29.96,29.96-29.96,29.96c-.6.6-1.18,1.23-1.7,1.89-6.06,7.62-3.03,19.02,6.06,22.41,4.7,1.75,9.01,1.28,12.83-1.2.01,0,.02-.01.04-.02,1.03-.66,2.01-1.48,2.97-2.43,16.87-16.87,33.74-33.74,50.6-50.6h27.22c-21.52,21.52-43.04,43.04-64.57,64.57-1.25,1.25-2.58,2.38-3.98,3.4-.6.46-1.21.88-1.84,1.29-9.16,5.89-20.23,6.71-29.82,3.19-6.71-2.47-12.69-7.04-16.75-13.49-8.45-13.39-6.49-30.74,4.72-41.97Z" style="fill: rgb(29, 29, 27); stroke-width: 0px;"/>
    <path class="cls-2" d="M235.7,376.45c-10.88,10.85-21.76,21.69-32.64,32.54-.01.01-.01.02-.02.02-10.17,10.14-20.33,20.27-30.5,30.41-.14.14-.29.29-.43.43-8.93,8.9-17.85,17.8-26.78,26.7-.44.48-.95,1.03-1.54,1.62-.2.2-.4.4-.61.61-.85.82-1.83,1.72-2.94,2.64,0,0-1.52,1.26-3.25,2.49-11.76,8.4-24.84,12.79-39.17,13.03-.11.01-.21.01-.32.01-.45.02-.91.02-1.36.02-5.91-.03-11.68-.79-17.2-2.23-6.75-1.75-13.16-4.49-19.02-8.16-9.07-5.62-16.85-13.39-22.66-22.87-14.45-23.58-13.05-53.67,2.49-75.8h25.78c-1.35,1.36-2.7,2.71-4.06,4.06-3.79,3.78-6.94,8.01-9.39,12.76-11.5,22.41-4.81,49.54,15.83,63.99,2,1.41,4.05,2.63,6.17,3.71,6.79,3.45,14.12,5.2,21.94,5.24.35,0,.72-.01,1.08-.01,6.16-.09,11.91-1.18,17.25-3.2,2.93-1.11,7.99-3.36,13.21-7.55.73-.59,1.4-1.16,1.98-1.68.03-.04.06-.06.09-.09,1.45-1.3,2.41-2.33,2.8-2.74.42-.45.96-1.01,1.61-1.68.13-.13.27-.27.41-.41,5.26-5.4,16.85-16.98,33.15-33.15.85-.85,1.72-1.72,2.61-2.6,6.44-6.38,13.56-13.44,21.27-21.07h0c12.42-10.91,28.22-16.72,44.21-17.04Z" style="fill: rgb(29, 29, 27); stroke-width: 0px;"/>
  </g>
  <g transform="matrix(0.356535, 0, 0, 0.356535, -9.7015, -133.87575)" style="">
    <path class="cls-2" d="M247.37,600.86c-5.67,5.67-11.33,11.33-17,17h-27.21l29.96-29.96c.6-.6,1.19-1.23,1.71-1.89,6.05-7.63,3.02-19.02-6.06-22.41-4.71-1.76-9.01-1.27-12.83,1.2-.01,0-.02.01-.03.02-1.03.67-2.02,1.48-2.97,2.44-16.86,16.86-33.74,33.72-50.6,50.6h-27.22l64.56-64.56c1.25-1.25,2.58-2.38,3.98-3.41.6-.46,1.22-.87,1.85-1.29,9.16-5.89,20.23-6.71,29.81-3.19,6.71,2.46,12.69,7.04,16.76,13.49,8.44,13.38,6.5,30.74-4.72,41.97Z" style="fill: rgb(29, 29, 27); stroke-width: 0px;"/>
    <path class="cls-2" d="M281.72,617.85h-25.78c1.35-1.35,2.7-2.7,4.05-4.05,3.79-3.78,6.94-8.01,9.4-12.76,11.5-22.41,4.81-49.54-15.83-63.99-2-1.4-4.05-2.63-6.17-3.7-6.79-3.45-14.13-5.21-21.95-5.24-.35,0-.71.01-1.08.01-6.16.09-11.91,1.17-17.25,3.2-3.02,1.15-8.08,3.08-13.21,7.55-.75.66-1.35,1.23-1.76,1.63-21.92,21.86-43.84,43.71-65.76,65.57-.64.56-1.29,1.12-1.93,1.68-4.04,3.12-11.57,8.04-22.17,10.11-5.18,1.01-10.51,1.24-15.78.66.23-.21.44-.44.66-.66l24.19-24.19c.24-.24.46-.46.7-.7,21.12-21.12,42.26-42.26,63.38-63.38,1.85-1.84,3.77-3.59,5.78-5.24,1.05-.86,2.14-1.69,3.25-2.49,11.85-8.46,25.04-12.85,39.49-13.04.45-.01.91-.01,1.36-.01,5.91.02,11.67.79,17.19,2.23,6.76,1.75,13.16,4.49,19.02,8.16,9.07,5.62,16.86,13.39,22.66,22.87,14.45,23.57,13.05,53.67-2.49,75.79Z" style="fill: rgb(29, 29, 27); stroke-width: 0px;"/>
  </g>
</svg>